<svg width="125" height="18" viewBox="0 0 125 18" fill="none" xmlns="http://www.w3.org/2000/svg">
<path d="M7.71919 11.91H9.92467V9.26299V8.20499V5.55799H7.71919V8.20499V9.26299V11.91Z" fill="#5A668A"/>
<ellipse cx="1.10274" cy="8.13849" rx="1.10274" ry="1.09175" fill="#5A668A"/>
<ellipse cx="1.10274" cy="9.32949" rx="1.10274" ry="1.09175" fill="#5A668A"/>
<rect y="8.13849" width="2.20548" height="1.191" fill="#5A668A"/>
<ellipse cx="16.5411" cy="9.32949" rx="1.10274" ry="1.09175" fill="#5A668A"/>
<ellipse cx="16.5411" cy="8.13849" rx="1.10274" ry="1.09175" fill="#5A668A"/>
<rect x="17.6438" y="9.32949" width="2.20548" height="1.191" transform="rotate(180 17.6438 9.32949)" fill="#5A668A"/>
<ellipse cx="4.9122" cy="11.7115" rx="1.10274" ry="1.09175" fill="#5A668A"/>
<ellipse cx="4.9122" cy="12.9025" rx="1.10274" ry="1.09175" fill="#5A668A"/>
<rect x="3.80946" y="11.7115" width="2.20548" height="1.191" fill="#5A668A"/>
<ellipse cx="4.9122" cy="4.5655" rx="1.10274" ry="1.09175" fill="#5A668A"/>
<ellipse cx="4.9122" cy="8.43624" rx="1.10274" ry="1.09175" fill="#5A668A"/>
<rect x="3.80946" y="4.56549" width="2.20548" height="3.89556" fill="#5A668A"/>
<ellipse cx="12.7316" cy="5.75649" rx="1.10274" ry="1.09175" fill="#5A668A"/>
<ellipse cx="12.7316" cy="4.5655" rx="1.10274" ry="1.09175" fill="#5A668A"/>
<rect x="13.8344" y="5.75649" width="2.20548" height="1.191" transform="rotate(180 13.8344 5.75649)" fill="#5A668A"/>
<ellipse cx="8.82193" cy="2.28275" rx="1.10274" ry="1.09175" fill="#5A668A"/>
<ellipse cx="8.82193" cy="1.09175" rx="1.10274" ry="1.09175" fill="#5A668A"/>
<rect x="9.92467" y="2.28275" width="2.20548" height="1.191" transform="rotate(180 9.92467 2.28275)" fill="#5A668A"/>
<ellipse cx="8.82193" cy="16.3762" rx="1.10274" ry="1.09175" fill="#5A668A"/>
<ellipse cx="8.82193" cy="15.1852" rx="1.10274" ry="1.09175" fill="#5A668A"/>
<rect x="9.92467" y="16.3762" width="2.20548" height="1.191" transform="rotate(180 9.92467 16.3762)" fill="#5A668A"/>
<ellipse cx="12.7316" cy="12.9025" rx="1.10274" ry="1.09175" fill="#5A668A"/>
<ellipse cx="12.7316" cy="9.03174" rx="1.10274" ry="1.09175" fill="#5A668A"/>
<rect x="13.8344" y="12.9025" width="2.20548" height="3.87075" transform="rotate(180 13.8344 12.9025)" fill="#5A668A"/>
<ellipse cx="8.82193" cy="5.55799" rx="1.10274" ry="1.09175" fill="#5A668A"/>
<ellipse cx="8.82193" cy="11.91" rx="1.10274" ry="1.09175" fill="#5A668A"/>
<path fill-rule="evenodd" clip-rule="evenodd" d="M69.6013 12.8022H70.9502V8.81154H73.1787C74.0682 8.81154 74.8379 8.53403 75.4879 7.979C76.1379 7.42397 76.4628 6.72446 76.4628 5.88044C76.4628 5.03643 76.1379 4.33692 75.4879 3.78189C74.8379 3.22686 74.0682 2.94934 73.1787 2.94934H69.6013V12.8022ZM73.208 7.60058H70.9502V4.16032H73.208C73.7749 4.16032 74.2294 4.33921 74.5715 4.697C74.9136 5.05479 75.0847 5.44926 75.0847 5.88044C75.0847 6.31162 74.9136 6.70611 74.5715 7.06389C74.2294 7.42168 73.7749 7.60058 73.208 7.60058ZM77.5812 6.87124C78.2752 6.18318 79.1598 5.83916 80.235 5.83916C81.3101 5.83916 82.1947 6.18089 82.8887 6.86436C83.5827 7.54783 83.9296 8.4033 83.9296 9.43079C83.9296 10.4583 83.5827 11.3138 82.8887 11.9972C82.1947 12.6807 81.3101 13.0224 80.235 13.0224C79.1598 13.0224 78.2752 12.6807 77.5812 11.9972C76.8873 11.3138 76.5403 10.4583 76.5403 9.43079C76.5403 8.4033 76.8873 7.55012 77.5812 6.87124ZM80.235 11.8665C79.5996 11.8665 79.0474 11.6463 78.5782 11.206C78.1188 10.7564 77.8891 10.1647 77.8891 9.43079C77.8891 8.69687 78.1213 8.10744 78.5856 7.6625C79.0498 7.21756 79.5996 6.99509 80.235 6.99509C80.8703 6.99509 81.4201 7.21756 81.8844 7.6625C82.3487 8.10744 82.5808 8.69687 82.5808 9.43079C82.5808 10.1647 82.3487 10.7541 81.8844 11.1991C81.4201 11.644 80.8703 11.8665 80.235 11.8665ZM87.995 13.0224C87.0664 13.0224 86.2649 12.6784 85.5905 11.9903C84.9161 11.3023 84.5789 10.4491 84.5789 9.43079C84.5789 8.41247 84.9161 7.55929 85.5905 6.87124C86.2649 6.18318 87.0664 5.83916 87.995 5.83916C88.5423 5.83916 89.0335 5.94925 89.4685 6.16943C89.9034 6.38961 90.2284 6.66482 90.4434 6.99509H90.5021L90.4434 6.05934V2.94934H91.7923V12.8022H90.5021V11.8665H90.4434C90.2284 12.1968 89.9034 12.472 89.4685 12.6921C89.0335 12.9123 88.5423 13.0224 87.995 13.0224ZM89.835 11.206C89.3903 11.6463 88.8502 11.8665 88.2149 11.8665C87.5893 11.8665 87.0518 11.644 86.6021 11.1991C86.1525 10.7541 85.9277 10.1647 85.9277 9.43079C85.9277 8.69687 86.1525 8.10744 86.6021 7.6625C87.0518 7.21756 87.5893 6.99509 88.2149 6.99509C88.8502 6.99509 89.3903 7.21526 89.835 7.65562C90.2797 8.09597 90.5021 8.68769 90.5021 9.43079C90.5021 10.1739 90.2797 10.7656 89.835 11.206ZM96.4734 13.0224C95.3982 13.0224 94.5137 12.6807 93.8197 11.9972C93.1257 11.3138 92.7787 10.4583 92.7787 9.43079C92.7787 8.4033 93.1257 7.54783 93.8197 6.86436C94.5137 6.18089 95.3982 5.83916 96.4734 5.83916C97.2749 5.83916 97.9396 6.02264 98.4674 6.3896C98.9952 6.75656 99.3813 7.21985 99.6256 7.77947L98.3941 8.2611C98.0226 7.41709 97.3531 6.99509 96.3854 6.99509C95.7892 6.99509 95.2638 7.22444 94.8093 7.68314C94.3548 8.14184 94.1276 8.72439 94.1276 9.43079C94.1276 10.1372 94.3548 10.7197 94.8093 11.1784C95.2638 11.6371 95.7892 11.8665 96.3854 11.8665C97.3922 11.8665 98.0862 11.4445 98.4674 10.6005L99.6696 11.0821C99.4252 11.6326 99.0318 12.0935 98.4894 12.4651C97.9469 12.8366 97.2749 13.0224 96.4734 13.0224ZM100.957 12.4032C101.47 12.816 102.108 13.0224 102.87 13.0224H102.87C103.906 13.0224 104.693 12.6371 105.23 11.8665H105.289V12.8022H106.579V8.72898C106.579 7.81157 106.276 7.10059 105.67 6.59602C105.064 6.09145 104.302 5.83916 103.383 5.83916C102.582 5.83916 101.936 6.01117 101.448 6.3552C100.959 6.69923 100.632 7.07306 100.465 7.47673L101.697 7.97212C101.814 7.66938 102.032 7.43085 102.349 7.25655C102.667 7.08224 103.021 6.99509 103.412 6.99509C103.94 6.99509 104.385 7.14417 104.747 7.44232C105.108 7.74048 105.289 8.13725 105.289 8.63265V8.82531C104.781 8.55008 104.131 8.41247 103.339 8.41247C102.45 8.41247 101.702 8.62118 101.096 9.0386C100.49 9.45602 100.187 10.0317 100.187 10.7656C100.187 11.4445 100.443 11.9903 100.957 12.4032ZM103.09 11.8665C103.647 11.8665 104.153 11.6715 104.607 11.2816C105.062 10.8918 105.289 10.4308 105.289 9.89866C104.908 9.60509 104.336 9.45831 103.574 9.45831C102.919 9.45831 102.425 9.59133 102.093 9.85738C101.761 10.1234 101.594 10.4353 101.594 10.7931C101.594 11.1234 101.746 11.3849 102.049 11.5775C102.352 11.7702 102.699 11.8665 103.09 11.8665ZM108.541 12.472C109.064 12.8389 109.726 13.0224 110.527 13.0224C111.358 13.0224 112.037 12.8206 112.565 12.4169C113.093 12.0133 113.357 11.5087 113.357 10.9032C113.357 10.4537 113.196 10.05 112.873 9.69225C112.551 9.33446 112.052 9.08218 111.378 8.93539L109.956 8.61889C109.32 8.48128 109.003 8.21982 109.003 7.83451C109.003 7.56846 109.139 7.35746 109.413 7.2015C109.687 7.04555 110.024 6.96756 110.425 6.96756C111.256 6.96756 111.803 7.26572 112.067 7.86203L113.24 7.40792C113.025 6.90335 112.668 6.51575 112.169 6.24512C111.671 5.97448 111.104 5.83916 110.469 5.83916C109.696 5.83916 109.029 6.02493 108.467 6.39648C107.905 6.76804 107.624 7.25196 107.624 7.84827C107.624 8.37119 107.83 8.78631 108.24 9.09365C108.651 9.40097 109.086 9.60968 109.545 9.71977L110.996 10.05C111.651 10.206 111.979 10.5041 111.979 10.9445C111.979 11.2289 111.844 11.4582 111.576 11.6326C111.307 11.8069 110.962 11.894 110.542 11.894C109.623 11.894 108.973 11.472 108.592 10.628L107.39 11.0959C107.634 11.6463 108.018 12.105 108.541 12.472ZM117.393 12.9123C116.64 12.9123 116.066 12.7243 115.67 12.3481C115.274 11.972 115.076 11.4399 115.076 10.7518V7.21526H113.816V6.05934H115.076V3.99518H116.425V6.05934H118.185V7.21526H116.425V10.6555C116.425 11.3894 116.748 11.7564 117.393 11.7564C117.637 11.7564 117.843 11.7197 118.009 11.6463L118.478 12.7334C118.185 12.8527 117.823 12.9123 117.393 12.9123ZM120.131 12.472C120.654 12.8389 121.317 13.0224 122.118 13.0224C122.949 13.0224 123.628 12.8206 124.156 12.4169C124.684 12.0133 124.948 11.5087 124.948 10.9032C124.948 10.4537 124.786 10.05 124.464 9.69225C124.141 9.33446 123.643 9.08218 122.968 8.93539L121.546 8.61889C120.911 8.48128 120.593 8.21982 120.593 7.83451C120.593 7.56846 120.73 7.35746 121.004 7.2015C121.278 7.04555 121.615 6.96756 122.015 6.96756C122.846 6.96756 123.394 7.26572 123.658 7.86203L124.83 7.40792C124.615 6.90335 124.259 6.51575 123.76 6.24512C123.262 5.97448 122.695 5.83916 122.059 5.83916C121.287 5.83916 120.62 6.02493 120.058 6.39648C119.496 6.76804 119.215 7.25196 119.215 7.84827C119.215 8.37119 119.42 8.78631 119.831 9.09365C120.241 9.40097 120.676 9.60968 121.136 9.71977L122.587 10.05C123.242 10.206 123.57 10.5041 123.57 10.9445C123.57 11.2289 123.435 11.4582 123.166 11.6326C122.898 11.8069 122.553 11.894 122.133 11.894C121.214 11.894 120.564 11.472 120.183 10.628L118.981 11.0959C119.225 11.6463 119.609 12.105 120.131 12.472Z" fill="#5A668A"/>
<path fill-rule="evenodd" clip-rule="evenodd" d="M28.0594 2.33326C25.0838 2.33326 22.5905 4.72043 22.5905 7.6663C22.5905 10.602 25.0838 12.9892 28.0594 12.9892C29.66 12.9892 30.8707 12.4711 31.825 11.4959C32.7997 10.5411 33.0973 9.19003 33.0973 8.09295C33.0973 7.74757 33.0665 7.44282 33.0152 7.17871H28.0594V8.63133H31.5787C31.4761 9.44399 31.1991 10.0433 30.7784 10.4598C30.2654 10.9677 29.4651 11.5264 28.0594 11.5264C25.8944 11.5264 24.2014 9.79952 24.2014 7.65614C24.2014 5.51277 25.8944 3.78588 28.0594 3.78588C29.2291 3.78588 30.0807 4.24299 30.7066 4.83217L31.7531 3.80619C30.8707 2.97322 29.701 2.33326 28.0594 2.33326ZM40.5258 9.62684C40.5258 7.63583 38.9663 6.19337 37.0475 6.19337C35.1288 6.19337 33.5692 7.63583 33.5692 9.62684C33.5692 11.6077 35.1288 13.0603 37.0475 13.0603C38.9663 13.0603 40.5258 11.6077 40.5258 9.62684ZM37.0475 11.6991C38.0941 11.6991 39.0073 10.8458 39.0073 9.61668C39.0073 8.37738 38.0941 7.53425 37.0475 7.53425C35.9907 7.53425 35.0878 8.37738 35.0878 9.61668C35.0878 10.8458 36.001 11.6991 37.0475 11.6991ZM48.1186 9.62684C48.1186 7.63583 46.559 6.19337 44.6403 6.19337C42.7216 6.19337 41.162 7.63583 41.162 9.62684C41.162 11.6077 42.7216 13.0603 44.6403 13.0603C46.559 13.0603 48.1186 11.6077 48.1186 9.62684ZM44.6403 11.6991C45.6869 11.6991 46.6 10.8458 46.6 9.61668C46.6 8.37738 45.6971 7.53425 44.6403 7.53425C43.5835 7.53425 42.6805 8.37738 42.6805 9.61668C42.6805 10.8458 43.5937 11.6991 44.6403 11.6991ZM55.4138 6.3051H53.9568V6.86381H53.9055C53.5669 6.45748 52.9102 6.09179 52.0791 6.09179C50.3451 6.09179 48.7547 7.5952 48.7547 9.53541C48.7547 11.4553 50.3451 12.9587 52.0791 12.9587C52.9102 12.9587 53.5669 12.593 53.9055 12.1765H53.9568V12.6743C53.9568 13.9847 53.2488 14.6856 52.1099 14.6856C51.1762 14.6856 50.6016 14.0253 50.3656 13.4666L49.042 14.0152C49.4217 14.9294 50.4375 16.0468 52.1202 16.0468C53.9055 16.0468 55.4138 15.0107 55.4138 12.4711V6.3051ZM52.2125 11.6077C53.2488 11.6077 54.0697 10.7442 54.0594 9.53541C54.0594 8.32659 53.2488 7.44282 52.2125 7.44282C51.166 7.44282 50.2835 8.32659 50.2835 9.53541C50.2835 10.7341 51.166 11.6077 52.2125 11.6077ZM56.4501 2.73958V12.8267H57.9686V2.73958H56.4501ZM62.1446 11.6991C62.9244 11.6991 63.458 11.3233 63.8581 10.7544L65.0381 11.5366C64.6482 12.0953 63.735 13.0603 62.1446 13.0603C60.1746 13.0603 58.7074 11.5467 58.7074 9.62684C58.7074 7.58504 60.1952 6.19337 61.9805 6.19337C63.7761 6.19337 64.6585 7.60535 64.9458 8.37738L65.0997 8.76339L60.4619 10.663C60.821 11.3436 61.3649 11.6991 62.1446 11.6991ZM60.2157 9.5151C60.1746 8.19453 61.252 7.51393 62.0318 7.51393C62.6371 7.51393 63.1502 7.80852 63.3143 8.24532L60.2157 9.5151Z" fill="#5A668A"/>
</svg>
