<svg width="129" height="26" viewBox="0 0 129 26" fill="none" xmlns="http://www.w3.org/2000/svg">
<path fill-rule="evenodd" clip-rule="evenodd" d="M25.7467 12.9154C25.7467 20.0489 19.9837 25.8319 12.8733 25.8319C5.763 25.8319 0 20.0489 0 12.9154C0 5.78302 5.763 0 12.8733 0C19.9837 0 25.7467 5.78302 25.7467 12.9154ZM12.9927 19.1349C9.63512 19.1349 6.91391 16.4036 6.91391 13.0351C6.91391 9.66657 9.63512 6.93648 12.9927 6.93648C16.3502 6.93648 19.0714 9.66657 19.0714 13.0351H16.8612C16.8612 10.8914 15.1294 9.15392 12.9927 9.15392C10.8559 9.15392 9.12414 10.8914 9.12414 13.0351C9.12414 15.1788 10.8559 16.9162 12.9927 16.9162V19.1349ZM12.9927 2.87035C7.39717 2.87035 2.86101 7.42132 2.86101 13.0351C2.86101 18.6488 7.39717 23.201 12.9927 23.201V20.6595C8.79634 20.6595 5.39422 17.2463 5.39422 13.0351C5.39422 8.82506 8.79634 5.41183 12.9927 5.41183C17.1902 5.41183 20.5911 8.82506 20.5911 13.0351H23.1243C23.1243 7.42132 18.5881 2.87035 12.9927 2.87035Z" fill="#5A668A"/>
<path fill-rule="evenodd" clip-rule="evenodd" d="M34.0164 6.04418V20.1094H37.1196V16.0711H37.9018C40.9062 16.0711 43.0887 14.5645 43.0887 10.9276C43.0887 7.6716 41.246 6.04418 37.8222 6.04418H34.0164ZM40.0047 11.0268C40.0047 12.7352 39.2636 13.5392 37.7813 13.5392H37.1004V8.61589H37.8222C39.2636 8.61589 40.0047 9.27846 40.0047 11.0268Z" fill="#5A668A"/>
<path fill-rule="evenodd" clip-rule="evenodd" d="M43.3876 14.9261C43.3876 18.482 45.27 20.3113 47.6345 20.3113C49.9978 20.3113 51.9007 18.4626 51.9007 14.885C51.9007 11.3291 49.9978 9.48038 47.6538 9.48038C45.2905 9.48038 43.3876 11.3291 43.3876 14.9261ZM46.1522 14.885C46.1522 12.9166 46.7126 11.9517 47.614 11.9517C48.5347 11.9517 49.1361 12.9166 49.1361 14.9055C49.1361 16.8751 48.5552 17.8593 47.6538 17.8593C46.7331 17.8593 46.1522 16.8751 46.1522 14.885Z" fill="#5A668A"/>
<path d="M57.0057 20.2714C54.2218 20.2714 52.5792 18.3211 52.5792 14.9261C52.5792 11.6096 54.2616 9.52028 57.166 9.52028C58.0879 9.52028 58.7881 9.70043 59.469 9.9628L59.0279 12.4946C58.5471 12.2733 57.9879 12.092 57.4058 12.092C56.0645 12.092 55.3631 13.2575 55.3631 14.885C55.3631 16.6538 56.0645 17.6985 57.4468 17.6985C57.9674 17.6985 58.5073 17.5377 59.0882 17.3164L59.5293 19.7491C58.8279 20.0501 57.9072 20.2714 57.0057 20.2714Z" fill="#5A668A"/>
<path d="M63.4737 15.1268V20.1106H60.5693V5.62221H63.4737V14.2018L65.837 9.70164H69.021L66.1973 14.6842L69.1017 20.1106H65.8768L63.4737 15.1268Z" fill="#5A668A"/>
<path fill-rule="evenodd" clip-rule="evenodd" d="M72.8461 9.48038C70.5419 9.48038 68.7185 11.369 68.7185 14.9454C68.7185 18.9245 70.7419 20.2714 73.286 20.2714C74.408 20.2714 75.589 20.009 76.5905 19.5073L76.0699 17.4579C75.2492 17.8387 74.3477 18.0805 73.5861 18.0805C72.305 18.0805 71.5241 17.3769 71.4228 15.9502H76.9316V15.0059C76.9316 11.3484 75.2889 9.48038 72.8461 9.48038ZM72.8461 11.7111C73.7259 11.7111 74.1874 12.6349 74.2477 14.2018H71.4228C71.4831 12.6748 71.9435 11.7111 72.8461 11.7111Z" fill="#5A668A"/>
<path d="M78.491 16.9948V12.092H77.3702V9.70043H78.491V6.96912H81.3761V9.70043H83.5791V12.092H81.3761V16.574C81.3761 17.4373 81.8365 17.7988 82.6174 17.7988C82.9585 17.7988 83.2585 17.7384 83.5791 17.6586V20.0296C83.138 20.1698 82.5174 20.2508 81.7967 20.2508C79.5937 20.2508 78.491 19.3464 78.491 16.9948Z" fill="#5A668A"/>
<path d="M93.3311 20.2714C89.6856 20.2714 87.4018 17.9403 87.4018 13.0967C87.4018 8.43573 89.7458 5.88337 93.3516 5.88337C94.5531 5.88337 95.5546 6.12398 96.3356 6.42625L95.8547 9.27967C95.2341 9.01851 94.5134 8.77669 93.6517 8.77669C91.7295 8.77669 90.587 10.3038 90.587 13.0568C90.587 15.8897 91.6692 17.3769 93.712 17.3769C94.4929 17.3769 95.2341 17.1762 95.8752 16.8944L96.3753 19.6681C95.5149 20.0296 94.4531 20.2714 93.3311 20.2714Z" fill="#5A668A"/>
<path fill-rule="evenodd" clip-rule="evenodd" d="M96.9345 16.9549C96.9345 19.2062 98.0758 20.2508 99.6979 20.2508C100.78 20.2508 101.521 19.8688 102.283 19.2062L102.643 20.1106H105.167L104.946 18.2619V13.0568C104.946 10.6653 103.764 9.54083 101.14 9.54083C99.7991 9.54083 98.5771 9.86244 97.5359 10.2844L98.0758 12.4946C98.8772 12.1524 99.7786 11.9118 100.62 11.9118C101.701 11.9118 102.102 12.3943 102.102 13.2781V13.8609C101.621 13.7605 101.061 13.6795 100.499 13.6795C99.1978 13.6795 98.3361 13.9806 97.7564 14.5839C97.2153 15.1074 96.9345 15.9501 96.9345 16.9549ZM102.102 15.4278V17.9004C101.721 18.1204 101.301 18.2812 100.899 18.2812C100.099 18.2812 99.6389 17.8593 99.6389 16.8146C99.6389 16.2923 99.7594 15.9308 99.9787 15.689C100.22 15.4677 100.56 15.348 101.161 15.348C101.501 15.348 101.821 15.3674 102.102 15.4278Z" fill="#5A668A"/>
<path d="M109.772 20.2907C108.369 20.2907 107.067 19.9292 105.945 19.3259L106.526 16.9754C107.629 17.5776 108.729 17.9403 109.731 17.9403C110.473 17.9403 110.873 17.6187 110.873 17.1762C110.873 16.7348 110.633 16.5329 109.231 15.9707C107.288 15.1872 106.326 14.4436 106.326 12.6953C106.326 10.7656 107.648 9.52028 109.972 9.52028C111.153 9.52028 112.235 9.80199 113.216 10.2844L112.635 12.6349C111.734 12.173 110.813 11.8707 109.972 11.8707C109.351 11.8707 109.01 12.1331 109.01 12.5551C109.01 12.9565 109.231 13.1572 110.613 13.7206C112.797 14.5839 113.557 15.3879 113.557 17.0359C113.557 19.2062 112.035 20.2907 109.772 20.2907Z" fill="#5A668A"/>
<path d="M115.218 16.9948V12.092H114.096V9.70043H115.218V6.96912H118.102V9.70043H120.305V12.092H118.102V16.574C118.102 17.4373 118.563 17.7988 119.343 17.7988C119.684 17.7988 119.984 17.7384 120.305 17.6586V20.0296C119.865 20.1698 119.243 20.2508 118.522 20.2508C116.319 20.2508 115.218 19.3464 115.218 16.9948Z" fill="#5A668A"/>
<mask id="mask0_4_1525" style="mask-type:luminance" maskUnits="userSpaceOnUse" x="120" y="9" width="9" height="12">
<path fill-rule="evenodd" clip-rule="evenodd" d="M120.939 9.2845H128.796V20.4274H120.939V9.2845Z" fill="white"/>
</mask>
<g mask="url(#mask0_4_1525)">
<path d="M125.011 20.2907C123.608 20.2907 122.306 19.9292 121.184 19.3259L121.765 16.9754C122.868 17.5776 123.968 17.9403 124.97 17.9403C125.711 17.9403 126.112 17.6187 126.112 17.1762C126.112 16.7348 125.871 16.5329 124.47 15.9707C122.527 15.1872 121.565 14.4436 121.565 12.6953C121.565 10.7656 122.887 9.52028 125.211 9.52028C126.392 9.52028 127.474 9.80199 128.455 10.2844L127.874 12.6349C126.973 12.173 126.052 11.8707 125.211 11.8707C124.59 11.8707 124.249 12.1331 124.249 12.5551C124.249 12.9565 124.47 13.1572 125.852 13.7206C128.034 14.5839 128.795 15.3879 128.795 17.0359C128.795 19.2062 127.274 20.2907 125.011 20.2907Z" fill="#5A668A"/>
</g>
</svg>
