<svg width="96" height="29" viewBox="0 0 96 29" fill="none" xmlns="http://www.w3.org/2000/svg">
<path fill-rule="evenodd" clip-rule="evenodd" d="M14.3816 0C6.43904 0 0 6.47201 0 14.4555C0 22.4393 6.43904 28.9108 14.3816 28.9108C22.3251 28.9108 28.7634 22.4393 28.7634 14.4555C28.7634 6.47252 22.3251 0.000690476 14.3815 0.000690476L14.3816 0ZM20.9769 20.8489C20.7193 21.2736 20.1664 21.4082 19.7439 21.1476C16.3672 19.0744 12.1164 18.6049 7.11035 19.7545C6.62795 19.865 6.14709 19.5612 6.03718 19.0761C5.92675 18.5911 6.22781 18.1077 6.71141 17.9973C12.1898 16.7392 16.889 17.2809 20.6798 19.6095C21.1023 19.8702 21.2363 20.4243 20.9769 20.8489ZM21.195 17.2843C21.7223 17.6106 22.4127 17.4432 22.7372 16.9129V16.913C23.0618 16.3838 22.8952 15.6899 22.368 15.3636C17.9286 12.6216 11.4355 11.85 6.21252 13.4429C5.62055 13.6241 5.28618 14.2525 5.46479 14.8485C5.64477 15.4435 6.27108 15.7795 6.86409 15.5994C11.4365 14.2043 17.3293 14.896 21.195 17.2843ZM22.8884 12.8142C18.2532 10.0469 10.6059 9.79251 6.18041 11.1426C5.46977 11.3592 4.71825 10.956 4.5029 10.2417C4.28754 9.52702 4.68837 8.77215 5.39953 8.555C10.4796 7.00488 18.9247 7.30437 24.2612 10.4887C24.9018 10.87 25.1113 11.6998 24.7318 12.3414C24.3539 12.9839 23.5262 13.1957 22.889 12.8142H22.8884ZM36.203 11.4538C36.203 12.3316 36.6444 12.7493 39.1276 13.3445L39.1328 13.3467C42.1571 14.0862 43.3918 15.2341 43.3867 17.3068C43.3867 19.7632 41.5199 21.3495 38.6313 21.3495C36.5877 21.3495 34.6952 20.6211 33.1564 19.2401C33.0911 19.1814 33.0843 19.0813 33.141 19.0123L34.5011 17.3862C34.5286 17.3534 34.5681 17.3327 34.6127 17.3292C34.6539 17.3275 34.6986 17.3396 34.7312 17.3689C36.0536 18.5186 37.2368 19.0105 38.6863 19.0105C39.9915 19.0105 40.8021 18.4426 40.8021 17.5295C40.8021 16.7057 40.4002 16.2448 38.0251 15.6947C35.2327 15.0165 33.6167 14.1378 33.6167 11.6564C33.6167 9.34249 35.4903 7.72522 38.1711 7.72522C39.9949 7.72522 41.5543 8.26845 42.9402 9.38582C43.0071 9.43985 43.0209 9.53738 42.9711 9.60815L41.7586 11.3261C41.7329 11.3621 41.6951 11.3861 41.6504 11.3927C41.6075 11.3996 41.5628 11.3891 41.5285 11.3626C40.3641 10.4902 39.2547 10.0665 38.135 10.0665C36.9792 10.0665 36.203 10.6245 36.203 11.4538ZM49.9229 10.8829C48.671 10.8829 47.644 11.3787 46.7956 12.3946V11.2511C46.7956 11.1609 46.7235 11.0873 46.6342 11.0873H44.4102C44.3209 11.0873 44.2488 11.1609 44.2488 11.2511V23.9561C44.2488 24.0458 44.3209 24.1201 44.4102 24.1201H46.6342C46.7235 24.1201 46.7956 24.0458 46.7956 23.9561V19.9461C47.644 20.9007 48.671 21.3685 49.9229 21.3685C52.2499 21.3685 54.6061 19.5681 54.6061 16.1262C54.6096 12.6837 52.2534 10.8828 49.9246 10.8828L49.9229 10.8829ZM49.4077 19.102C50.9465 19.102 52.0198 17.8782 52.0198 16.1262V16.1261C52.0198 14.4016 50.9207 13.1505 49.4077 13.1506C47.8879 13.1506 46.7407 14.4294 46.7407 16.1262C46.7407 17.8229 47.8879 19.102 49.4077 19.102ZM60.6426 10.8829C57.6459 10.8829 55.2982 13.2022 55.2982 16.1637C55.2982 19.0934 57.6304 21.3875 60.6066 21.3875C63.6137 21.3875 65.9681 19.0761 65.9681 16.1262C65.9681 13.1864 63.6291 10.8833 60.6426 10.8833V10.8829ZM57.8468 16.1254C57.8468 17.8315 59.0489 19.1193 60.6426 19.1193C62.2518 19.1193 63.4196 17.8764 63.4196 16.1628C63.4196 14.4549 62.2106 13.1677 60.6066 13.1677C59.0077 13.1677 57.8468 14.4114 57.8468 16.1254ZM72.367 11.0873H69.9198V8.57295C69.9198 8.48285 69.8476 8.40931 69.7583 8.40931H67.5344C67.4451 8.40931 67.3712 8.48285 67.3712 8.57295V11.0873H66.303C66.2137 11.0873 66.1416 11.1609 66.1416 11.2511V13.1719C66.1416 13.262 66.2137 13.3357 66.303 13.3357H67.3712V18.3062C67.3712 20.3138 68.3656 21.3323 70.3285 21.3323C71.1254 21.3323 71.7865 21.1665 72.4099 20.811C72.4614 20.7833 72.4924 20.7281 72.4924 20.6694V18.8396C72.4924 18.7844 72.4632 18.7309 72.4151 18.7015C72.367 18.6705 72.3069 18.6688 72.2571 18.6946C71.8295 18.9104 71.4156 19.0105 70.9519 19.0105C70.2392 19.0105 69.9198 18.6843 69.9198 17.9558V13.3365H72.367C72.4563 13.3365 72.5284 13.263 72.5284 13.1727V11.2522C72.5319 11.1619 72.4597 11.0884 72.3687 11.0884L72.367 11.0873ZM80.8919 10.7883V11.0972V11.0977H84.6907C84.7577 11.0977 84.8178 11.1396 84.8419 11.203L87.4385 18.0145L89.8102 11.2075C89.8325 11.142 89.8943 11.0977 89.9647 11.0977H92.2797C92.3329 11.0977 92.3827 11.1244 92.4119 11.1688C92.4428 11.2135 92.4497 11.2705 92.4291 11.3209L88.5719 21.3392C87.7734 23.4071 86.8649 24.177 85.2231 24.177C84.3455 24.177 83.6363 23.994 82.8497 23.566C82.7742 23.5245 82.7432 23.433 82.7793 23.3536L83.5332 21.6913C83.5504 21.6499 83.5865 21.6188 83.6294 21.6033C83.6706 21.5912 83.7187 21.5946 83.7582 21.6154C84.1789 21.8484 84.5928 21.9658 84.9844 21.9658C85.4687 21.9658 85.8242 21.8052 86.1848 21.0008L83.0043 13.3362H80.928V21.0008C80.928 21.0923 80.8559 21.1648 80.7649 21.1648H78.5426C78.4533 21.1648 78.3794 21.0923 78.3794 21.0008V13.3357H77.3113C77.222 13.3357 77.1481 13.262 77.1481 13.1719V11.2413C77.1481 11.1512 77.222 11.0777 77.3113 11.0777H78.3794V10.6047C78.3794 8.40672 79.4665 7.2443 81.5188 7.2443C82.3637 7.2443 82.927 7.37946 83.3666 7.51117C83.4371 7.5324 83.4817 7.5961 83.4817 7.66808V9.55136C83.4817 9.60383 83.4577 9.65338 83.4147 9.68427C83.3735 9.71517 83.3203 9.72329 83.2688 9.70706C82.8514 9.56724 82.4788 9.47471 82.0151 9.47471C81.2388 9.47471 80.8919 9.87985 80.8919 10.7883ZM75.9494 11.0873H73.7254C73.6361 11.0873 73.5623 11.1609 73.5623 11.2511V21.0008C73.5623 21.0923 73.6361 21.1648 73.7254 21.1648H75.9494C76.0387 21.1648 76.1125 21.0923 76.1125 21.0008V11.2518C76.1125 11.1615 76.0404 11.088 75.9494 11.088V11.0873ZM73.2549 8.24981C73.2549 7.36445 73.9693 6.64773 74.8503 6.64773C75.7296 6.64773 76.444 7.36462 76.444 8.24981C76.444 9.13569 75.7313 9.85327 74.8503 9.85327C73.9693 9.85327 73.2549 9.13569 73.2549 8.24981ZM94.3285 14.2223C93.4492 14.2223 92.764 13.5119 92.764 12.6494C92.764 11.7868 93.4578 11.0683 94.3371 11.0683C95.2164 11.0683 95.9016 11.7785 95.9016 12.6404C95.9016 13.503 95.2078 14.2223 94.3285 14.2223ZM92.9289 12.6494C92.9289 11.8651 93.5351 11.2247 94.3371 11.2247C95.1339 11.2247 95.7367 11.8565 95.7367 12.6404C95.7367 13.4251 95.1305 14.065 94.3285 14.065C93.5316 14.065 92.9289 13.4332 92.9289 12.6494ZM94.684 12.8021L95.1271 13.4249H94.7527L94.3543 12.8536H94.0125V13.4249H93.7V11.774H94.4315C94.8145 11.774 95.0652 11.9703 95.0652 12.3007C95.067 12.5713 94.9107 12.7367 94.6857 12.8021H94.684ZM94.0125 12.0573H94.4195C94.6222 12.0573 94.7441 12.1482 94.7441 12.3181C94.7441 12.4795 94.6222 12.5794 94.4195 12.5794H94.0125V12.0573Z" fill="#5A668A"/>
</svg>
