<svg width="76" height="15" viewBox="0 0 76 15" fill="none" xmlns="http://www.w3.org/2000/svg">
<path fill-rule="evenodd" clip-rule="evenodd" d="M15.1686 7.45117C15.1686 11.5667 11.7733 14.903 7.5843 14.903C3.39525 14.903 0 11.5667 0 7.45117C0 3.33636 3.39525 0 7.5843 0C11.7733 0 15.1686 3.33636 15.1686 7.45117ZM7.65459 11.0393C5.67651 11.0393 4.07331 9.46359 4.07331 7.52023C4.07331 5.57687 5.67651 4.00181 7.65459 4.00181C9.63267 4.00181 11.2359 5.57687 11.2359 7.52023H9.93371C9.93371 6.28348 8.91343 5.28111 7.65459 5.28111C6.39574 5.28111 5.37546 6.28348 5.37546 7.52023C5.37546 8.75698 6.39574 9.75935 7.65459 9.75935V11.0393ZM7.65459 1.65597C4.35802 1.65597 1.68556 4.28153 1.68556 7.52023C1.68556 10.7589 4.35802 13.3852 7.65459 13.3852V11.9189C5.18234 11.9189 3.17799 9.94978 3.17799 7.52023C3.17799 5.09138 5.18234 3.12221 7.65459 3.12221C10.1275 3.12221 12.1312 5.09138 12.1312 7.52023H13.6236C13.6236 4.28153 10.9511 1.65597 7.65459 1.65597Z" fill="#5A668A"/>
<path fill-rule="evenodd" clip-rule="evenodd" d="M20.0407 3.48706V11.6016H21.8689V9.2718H22.3297C24.0998 9.2718 25.3856 8.40266 25.3856 6.30444C25.3856 4.42596 24.3 3.48706 22.2829 3.48706H20.0407ZM23.5687 6.36164C23.5687 7.34727 23.132 7.81114 22.2587 7.81114H21.8576V4.97074H22.2829C23.132 4.97074 23.5687 5.35299 23.5687 6.36164Z" fill="#5A668A"/>
<path fill-rule="evenodd" clip-rule="evenodd" d="M25.5617 8.61122C25.5617 10.6627 26.6707 11.7181 28.0637 11.7181C29.4561 11.7181 30.5772 10.6515 30.5772 8.58751C30.5772 6.53603 29.4561 5.46948 28.0751 5.46948C26.6828 5.46948 25.5617 6.53603 25.5617 8.61122ZM27.1904 8.58751C27.1904 7.4519 27.5206 6.89526 28.0517 6.89526C28.5941 6.89526 28.9484 7.4519 28.9484 8.59937C28.9484 9.73567 28.6062 10.3035 28.0751 10.3035C27.5327 10.3035 27.1904 9.73567 27.1904 8.58751Z" fill="#5A668A"/>
<path d="M33.5848 11.695C31.9446 11.695 30.9769 10.5699 30.9769 8.61115C30.9769 6.69779 31.9681 5.49243 33.6792 5.49243C34.2223 5.49243 34.6349 5.59637 35.036 5.74773L34.7761 7.20839C34.4929 7.08074 34.1634 6.97611 33.8205 6.97611C33.0302 6.97611 32.617 7.64854 32.617 8.58744C32.617 9.60794 33.0302 10.2106 33.8446 10.2106C34.1513 10.2106 34.4694 10.1179 34.8116 9.9902L35.0715 11.3937C34.6583 11.5673 34.1158 11.695 33.5848 11.695Z" fill="#5A668A"/>
<path d="M37.3954 8.72693V11.6022H35.6842V3.24353H37.3954V8.19331L38.7877 5.59705H40.6635L39 8.47163L40.7111 11.6022H38.8111L37.3954 8.72693Z" fill="#5A668A"/>
<path fill-rule="evenodd" clip-rule="evenodd" d="M42.9171 5.46948C41.5596 5.46948 40.4853 6.55905 40.4853 8.62238C40.4853 10.918 41.6774 11.6951 43.1762 11.6951C43.8373 11.6951 44.5331 11.5437 45.1231 11.2542L44.8164 10.0719C44.3328 10.2916 43.8018 10.4311 43.353 10.4311C42.5983 10.4311 42.1382 10.0251 42.0786 9.20204H45.324V8.65726C45.324 6.54719 44.3563 5.46948 42.9171 5.46948ZM42.9171 6.75645C43.4354 6.75645 43.7073 7.28938 43.7428 8.19339H42.0786C42.1141 7.3124 42.3853 6.75645 42.9171 6.75645Z" fill="#5A668A"/>
<path d="M46.2428 9.80467V6.97613H45.5825V5.59638H46.2428V4.02063H47.9425V5.59638H49.2404V6.97613H47.9425V9.56192C47.9425 10.06 48.2137 10.2685 48.6738 10.2685C48.8748 10.2685 49.0516 10.2337 49.2404 10.1876V11.5555C48.9806 11.6364 48.6149 11.6832 48.1903 11.6832C46.8924 11.6832 46.2428 11.1614 46.2428 9.80467Z" fill="#5A668A"/>
<path d="M54.9858 11.6951C52.838 11.6951 51.4926 10.3502 51.4926 7.55584C51.4926 4.8668 52.8735 3.39429 54.9979 3.39429C55.7057 3.39429 56.2958 3.5331 56.7558 3.70748L56.4725 5.35369C56.1069 5.20302 55.6823 5.06351 55.1747 5.06351C54.0422 5.06351 53.3691 5.94451 53.3691 7.53282C53.3691 9.16717 54.0067 10.0251 55.2102 10.0251C55.6702 10.0251 56.1069 9.90935 56.4846 9.74683L56.7793 11.347C56.2723 11.5556 55.6468 11.6951 54.9858 11.6951Z" fill="#5A668A"/>
<path fill-rule="evenodd" clip-rule="evenodd" d="M57.1087 9.78162C57.1087 11.0804 57.7811 11.6831 58.7367 11.6831C59.3743 11.6831 59.811 11.4627 60.2597 11.0804L60.472 11.6022H61.9588L61.8288 10.5357V7.53273C61.8288 6.15299 61.1323 5.50427 59.5866 5.50427C58.7964 5.50427 58.0764 5.68982 57.463 5.93326L57.7811 7.20837C58.2532 7.01097 58.7843 6.87216 59.2799 6.87216C59.9168 6.87216 60.1532 7.15048 60.1532 7.66038V7.9966C59.8699 7.9387 59.5398 7.89197 59.2089 7.89197C58.4421 7.89197 57.9344 8.06566 57.5929 8.41373C57.2741 8.71577 57.1087 9.20196 57.1087 9.78162ZM60.1532 8.90062V10.3271C59.9289 10.454 59.6811 10.5468 59.4446 10.5468C58.9732 10.5468 58.702 10.3034 58.702 9.7007C58.702 9.39936 58.773 9.1908 58.9022 9.05129C59.0442 8.92364 59.2444 8.85458 59.5987 8.85458C59.7989 8.85458 59.9878 8.86574 60.1532 8.90062Z" fill="#5A668A"/>
<path d="M64.6717 11.7062C63.8453 11.7062 63.0785 11.4976 62.4174 11.1495L62.7597 9.79349C63.4093 10.1409 64.0576 10.3501 64.6476 10.3501C65.0849 10.3501 65.3207 10.1646 65.3207 9.90928C65.3207 9.65468 65.1794 9.53819 64.3529 9.21383C63.2084 8.76182 62.6418 8.33283 62.6418 7.32418C62.6418 6.2109 63.4207 5.49243 64.7896 5.49243C65.4854 5.49243 66.123 5.65496 66.7009 5.93328L66.3587 7.28931C65.8276 7.02284 65.2852 6.84846 64.7896 6.84846C64.4239 6.84846 64.223 6.99983 64.223 7.24327C64.223 7.47485 64.3529 7.59065 65.1673 7.9157C66.4538 8.41375 66.9018 8.87762 66.9018 9.82837C66.9018 11.0805 66.0051 11.7062 64.6717 11.7062Z" fill="#5A668A"/>
<path d="M67.8802 9.80467V6.97613H67.2192V5.59638H67.8802V4.02063H69.5793V5.59638H70.8772V6.97613H69.5793V9.56192C69.5793 10.06 69.8512 10.2685 70.3106 10.2685C70.5115 10.2685 70.6883 10.2337 70.8772 10.1876V11.5555C70.618 11.6364 70.2516 11.6832 69.8271 11.6832C68.5292 11.6832 67.8802 11.1614 67.8802 9.80467Z" fill="#5A668A"/>
<mask id="mask0_31_318" style="mask-type:luminance" maskUnits="userSpaceOnUse" x="71" y="5" width="5" height="7">
<path fill-rule="evenodd" clip-rule="evenodd" d="M71.2506 5.35645H75.8799V11.785H71.2506V5.35645Z" fill="white"/>
</mask>
<g mask="url(#mask0_31_318)">
<path d="M73.6497 11.7062C72.8233 11.7062 72.0565 11.4976 71.3955 11.1495L71.7377 9.79349C72.3873 10.1409 73.0356 10.3501 73.6256 10.3501C74.0622 10.3501 74.2987 10.1646 74.2987 9.90928C74.2987 9.65468 74.1567 9.53819 73.3309 9.21383C72.1864 8.76182 71.6198 8.33283 71.6198 7.32418C71.6198 6.2109 72.3987 5.49243 73.7676 5.49243C74.4634 5.49243 75.101 5.65496 75.6789 5.93328L75.3367 7.28931C74.8056 7.02284 74.2632 6.84846 73.7676 6.84846C73.4019 6.84846 73.201 6.99983 73.201 7.24327C73.201 7.47485 73.3309 7.59065 74.1453 7.9157C75.4311 8.41375 75.8792 8.87762 75.8792 9.82837C75.8792 11.0805 74.9831 11.7062 73.6497 11.7062Z" fill="#5A668A"/>
</g>
</svg>
