<svg width="66" height="36" viewBox="0 0 66 36" fill="none" xmlns="http://www.w3.org/2000/svg">
<path fill-rule="evenodd" clip-rule="evenodd" d="M54.8175 28.8871C57.1378 28.8871 59.0363 27.911 60.5128 25.9588L61.1061 28.4914H65.6544V0H59.88V10.6051C59.2999 9.84009 58.5287 9.19376 57.5663 8.66614C56.6039 8.13852 55.4899 7.87471 54.2242 7.87471C52.7477 7.87471 51.4227 8.25724 50.2494 9.02228C49.076 9.78733 48.1466 10.9349 47.461 12.465C46.7755 13.9951 46.4327 15.8549 46.4327 18.0446V18.4799C46.4327 20.775 46.8019 22.7008 47.5401 24.2573C48.2784 25.8138 49.2804 26.9745 50.546 27.7396C51.8116 28.5046 53.2355 28.8871 54.8175 28.8871ZM5.77443 26.1567V35.6538H0V8.27043H4.54835L5.14161 10.803C6.61818 8.85081 8.51662 7.87471 10.8369 7.87471C12.419 7.87471 13.8428 8.25724 15.1084 9.02228C16.3741 9.78733 17.376 10.9481 18.1143 12.5046C18.8526 14.061 19.2217 15.9869 19.2217 18.282V18.7173C19.2217 20.9069 18.879 22.7668 18.1934 24.2969C17.5079 25.8269 16.5784 26.9745 15.4051 27.7396C14.2317 28.5046 12.9068 28.8871 11.4302 28.8871C10.1646 28.8871 9.05056 28.6233 8.08815 28.0957C7.12575 27.5681 6.35451 26.9218 5.77443 26.1567ZM6.8423 23.4461C7.55422 24.2771 8.46389 24.6926 9.57131 24.6926C10.6787 24.6926 11.5884 24.2771 12.3003 23.4461C13.0122 22.6151 13.3682 21.4345 13.3682 19.9044V16.62C13.3682 15.0635 13.0122 13.8764 12.3003 13.0586C11.5884 12.2408 10.6787 11.8319 9.57131 11.8319C8.46389 11.8319 7.55422 12.2408 6.8423 13.0586C6.13039 13.8764 5.77443 15.0635 5.77443 16.62V19.9044C5.77443 21.4345 6.13039 22.6151 6.8423 23.4461ZM33.1436 28.8871C35.0157 28.8871 36.7032 28.4914 38.2061 27.7C39.7091 26.9086 40.889 25.761 41.7459 24.2573C42.6029 22.7536 43.0313 20.986 43.0313 18.9547V17.8071C43.0313 15.7758 42.6029 14.0083 41.7459 12.5046C40.889 11.0009 39.7091 9.85328 38.2061 9.06185C36.7032 8.27043 35.0157 7.87471 33.1436 7.87471H32.5108C30.6387 7.87471 28.9512 8.27043 27.4483 9.06185C25.9454 9.85328 24.7654 11.0009 23.9085 12.5046C23.0516 14.0083 22.6231 15.7758 22.6231 17.8071V18.9547C22.6231 20.986 23.0516 22.7536 23.9085 24.2573C24.7654 25.761 25.9454 26.9086 27.4483 27.7C28.9512 28.4914 30.6387 28.8871 32.5108 28.8871H33.1436ZM29.6829 23.6637C30.4871 24.5079 31.5352 24.93 32.8272 24.93C34.1192 24.93 35.1673 24.5079 35.9715 23.6637C36.7757 22.8195 37.1778 21.5928 37.1778 19.9836V16.7783C37.1778 15.169 36.7757 13.9423 35.9715 13.0981C35.1673 12.2539 34.1192 11.8319 32.8272 11.8319C31.5352 11.8319 30.4871 12.2539 29.6829 13.0981C28.8787 13.9423 28.4766 15.169 28.4766 16.7783V19.9836C28.4766 21.5928 28.8787 22.8195 29.6829 23.6637ZM53.3541 23.6835C54.066 24.5145 54.9757 24.93 56.0831 24.93C57.1906 24.93 58.1002 24.5145 58.8121 23.6835C59.5241 22.8525 59.88 21.6719 59.88 20.1418V16.8574C59.88 15.3009 59.5241 14.1138 58.8121 13.296C58.1002 12.4782 57.1906 12.0693 56.0831 12.0693C54.9757 12.0693 54.066 12.4782 53.3541 13.296C52.6422 14.1138 52.2863 15.3009 52.2863 16.8574V20.1418C52.2863 21.6719 52.6422 22.8525 53.3541 23.6835Z" fill="white"/>
</svg>
